<?xml version="1.0" standalone="no"?>
<!DOCTYPE svg PUBLIC "-//W3C//DTD SVG 20010904//EN"
 "http://www.w3.org/TR/2001/REC-SVG-20010904/DTD/svg10.dtd">
<svg version="1.0" xmlns="http://www.w3.org/2000/svg"
 width="512.000000pt" height="512.000000pt" viewBox="0 0 512.000000 512.000000"
 preserveAspectRatio="xMidYMid meet">

<g transform="translate(0.000000,512.000000) scale(0.100000,-0.100000)"
fill="#000000" stroke="none">
<path d="M2405 5050 c-960 -56 -1812 -678 -2169 -1584 -253 -639 -220 -1400
87 -2011 208 -417 558 -796 952 -1032 586 -352 1290 -449 1950 -268 602 165
1148 581 1472 1120 478 794 476 1796 -4 2579 -202 329 -510 637 -839 839 -323
197 -732 330 -1085 352 -192 11 -237 12 -364 5z m-1071 -876 c15 -6 16 -139
16 -1410 l0 -1404 115 0 115 0 0 1051 c0 705 3 1057 10 1070 10 18 23 19 193
19 100 0 189 -5 197 -10 13 -8 15 -140 18 -1070 l2 -1060 105 0 105 0 0 815 0
815 26 10 c14 6 94 10 179 10 85 0 165 -4 179 -10 l26 -10 0 -815 0 -815 105
0 105 0 0 556 c0 364 4 562 10 575 10 18 23 19 200 19 177 0 190 -1 200 -19 6
-13 10 -211 10 -575 l0 -556 105 0 105 0 0 318 c0 234 3 321 12 330 17 17 369
17 386 0 9 -9 12 -96 12 -329 l0 -318 145 -3 c116 -2 148 -6 155 -18 15 -23
13 -373 -2 -388 -17 -17 -3199 -17 -3216 0 -17 17 -17 3199 0 3216 13 13 351
18 382 6z"/>
<path d="M1020 2560 l0 -1540 1540 0 1540 0 0 130 0 130 -1407 2 -1408 3 -3
1408 -2 1407 -130 0 -130 0 0 -1540z"/>
<path d="M1660 2390 l0 -1030 130 0 130 0 0 1030 0 1030 -130 0 -130 0 0
-1030z"/>
<path d="M2290 2145 l0 -785 125 0 125 0 0 785 0 785 -125 0 -125 0 0 -785z"/>
<path d="M2910 1895 l0 -535 130 0 130 0 0 535 0 535 -130 0 -130 0 0 -535z"/>
<path d="M3540 1650 l0 -290 125 0 125 0 0 290 0 290 -125 0 -125 0 0 -290z"/>
</g>
</svg>
